<svg version="1.2" xmlns="http://www.w3.org/2000/svg" viewBox="0 0 320 320" width="320" height="320">
	<title>Chessboard</title>
	<style>
		.s0 { fill: #f3dfb9 } 
		.s1 { fill: #8a5434 } 
	</style>
	<path id="Shape 1" class="s0" d="m0 0h40v40h-40zm40 40h40v40h-40zm40-40h40v40h-40zm40 40h40v40h-40zm40-40h40v40h-40zm40 40h40v40h-40zm40-40h40v40h-40zm40 40h40v40h-40zm-280 40h40v40h-40zm40 40h40v40h-40zm40-40h40v40h-40zm40 40h40v40h-40zm40-40h40v40h-40zm40 40h40v40h-40zm40-40h40v40h-40zm40 40h40v40h-40zm-280 40h40v40h-40zm40 40h40v40h-40zm40-40h40v40h-40zm40 40h40v40h-40zm40-40h40v40h-40zm40 40h40v40h-40zm40-40h40v40h-40zm40 40h40v40h-40zm-280 40h40v40h-40zm40 40h40v40h-40zm40-40h40v40h-40zm40 40h40v40h-40zm40-40h40v40h-40zm40 40h40v40h-40zm40-40h40v40h-40zm40 40h40v40h-40z"/>
	<path id="Shape 2" class="s1" d="m40 0h40v40h-40zm0 0h40v40h-40zm-40 40h40v40h-40zm120-40h40v40h-40zm-40 40h40v40h-40zm120-40h40v40h-40zm-40 40h40v40h-40zm120-40h40v40h-40zm-40 40h40v40h-40zm-200 40h40v40h-40zm0 0h40v40h-40zm-40 40h40v40h-40zm120-40h40v40h-40zm-40 40h40v40h-40zm120-40h40v40h-40zm-40 40h40v40h-40zm120-40h40v40h-40zm-40 40h40v40h-40zm-200 40h40v40h-40zm0 0h40v40h-40zm-40 40h40v40h-40zm120-40h40v40h-40zm-40 40h40v40h-40zm120-40h40v40h-40zm-40 40h40v40h-40zm120-40h40v40h-40zm-40 40h40v40h-40zm-200 40h40v40h-40zm0 0h40v40h-40zm-40 40h40v40h-40zm120-40h40v40h-40zm-40 40h40v40h-40zm120-40h40v40h-40zm-40 40h40v40h-40zm120-40h40v40h-40zm-40 40h40v40h-40z"/>
</svg>