<svg version="1.2" xmlns="http://www.w3.org/2000/svg" viewBox="0 0 800 800" width="800" height="800">
	<title>chessboardlabeled-svg</title>
	<style>
		.s0 { fill: #f3dfb9 } 
		.s1 { fill: #8a5434 } 
	</style>
	<path id="Shape 1" class="s0" d="m100 0v100h-100v-100zm100 100v100h-100v-100zm100-100v100h-100v-100zm100 100v100h-100v-100zm-300 100v100h-100v-100zm100 100v100h-100v-100zm100-100v100h-100v-100zm100 100v100h-100v-100zm100-300v100h-100v-100zm100 100v100h-100v-100zm100-100v100h-100v-100zm100 100v100h-100v-100zm-300 100v100h-100v-100zm100 100v100h-100v-100zm100-100v100h-100v-100zm100 100v100h-100v-100zm-700 100v100h-100v-100zm100 100v100h-100v-100zm100-100v100h-100v-100zm100 100v100h-100v-100zm-300 100v100h-100v-100zm100 100v100h-100v-100zm100-100v100h-100v-100zm100 100v100h-100v-100zm100-300v100h-100v-100zm100 100v100h-100v-100zm100-100v100h-100v-100zm100 100v100h-100v-100zm-300 100v100h-100v-100zm100 100v100h-100v-100zm100-100v100h-100v-100zm100 100v100h-100v-100z"/>
	<path id="Shape 3" class="s1" d="m200 0v100h-100v-100zm-100 100v100h-100v-100zm300-100v100h-100v-100zm-100 100v100h-100v-100zm-100 100v100h-100v-100zm-100 100v100h-100v-100zm300-100v100h-100v-100zm-100 100v100h-100v-100zm300-300v100h-100v-100zm-100 100v100h-100v-100zm300-100v100h-100v-100zm-100 100v100h-100v-100zm-100 100v100h-100v-100zm-100 100v100h-100v-100zm300-100v100h-100v-100zm-100 100v100h-100v-100zm-500 100v100h-100v-100zm-100 100v100h-100v-100zm300-100v100h-100v-100zm-100 100v100h-100v-100zm-100 100v100h-100v-100zm-100 100v100h-100v-100zm300-100v100h-100v-100zm-100 100v100h-100v-100zm300-300v100h-100v-100zm-100 100v100h-100v-100zm300-100v100h-100v-100zm-100 100v100h-100v-100zm-100 100v100h-100v-100zm-100 100v100h-100v-100zm300-100v100h-100v-100zm-100 100v100h-100v-100z"/>
	<g id="numbers">
		<path id="8" fill-rule="evenodd" class="s0" d="m12.5 723.2q-1.5 0-2.7-0.3-1.2-0.4-2-1.1-0.8-0.6-1.2-1.5-0.4-0.9-0.4-2 0-1.4 0.6-2.3 0.7-1 1.7-1.6-0.8-0.5-1.3-1.3-0.5-0.8-0.5-1.9 0-1.4 0.7-2.4 0.7-1 2-1.6 1.3-0.5 3.1-0.5 1.9 0 3.2 0.5 1.3 0.6 1.9 1.6 0.7 1 0.7 2.3 0 1.1-0.4 2-0.5 0.8-1.3 1.3 1 0.6 1.7 1.6 0.6 1 0.6 2.3 0 1.4-0.7 2.6-0.8 1.1-2.2 1.7-1.4 0.6-3.5 0.6zm0-2.4q0.9 0 1.7-0.3 0.7-0.3 1.1-0.9 0.4-0.5 0.4-1.3 0-0.8-0.4-1.4-0.4-0.5-1.1-0.8-0.8-0.4-1.7-0.4-0.9 0-1.6 0.4-0.7 0.3-1.1 0.8-0.5 0.6-0.5 1.4 0 0.8 0.5 1.3 0.4 0.6 1.1 0.9 0.7 0.3 1.6 0.3zm0-7.3q0.8-0.1 1.4-0.3 0.7-0.3 1-0.8 0.4-0.5 0.4-1.1 0-0.7-0.3-1.2-0.4-0.5-1-0.8-0.7-0.2-1.5-0.2-0.8 0-1.4 0.2-0.6 0.3-1 0.8-0.3 0.5-0.3 1.2 0 0.6 0.3 1.1 0.4 0.5 1 0.8 0.6 0.3 1.4 0.3z"/>
		<path id="7" class="s1" d="m11.4 623h-2.1q-0.2 0-0.3-0.1-0.1-0.2-0.1-0.4 0-0.1 0-0.2l5.5-12.7h-7.2q-0.2 0-0.4-0.1-0.1-0.2-0.1-0.4v-1.6q0-0.3 0.1-0.4 0.2-0.2 0.4-0.2h10.1q0.3 0 0.4 0.2 0.2 0.1 0.2 0.4v1.4q0 0.3-0.1 0.6 0 0.2-0.1 0.4l-5.5 12.5q-0.1 0.2-0.3 0.4-0.2 0.2-0.5 0.2z"/>
		<path id="6" fill-rule="evenodd" class="s0" d="m13.3 523.2q-1.9 0-3.4-0.7-1.4-0.8-2.2-2-0.8-1.3-0.8-2.9 0-0.7 0.2-1.4 0.2-0.7 0.5-1.3 0.3-0.5 0.6-1 0.3-0.5 0.5-0.8l4.2-5.7q0.1-0.2 0.3-0.3 0.2-0.2 0.5-0.2h2.1q0.3 0 0.4 0.2 0.1 0.1 0.1 0.3 0 0.1 0 0.2 0 0.1-0.1 0.1l-3.2 4.5q0.2-0.1 0.5-0.1 0.3 0 0.5 0 1.1 0 2.2 0.4 1 0.4 1.8 1.2 0.8 0.7 1.2 1.7 0.5 1 0.5 2.1 0 1.6-0.8 2.9-0.8 1.3-2.2 2-1.4 0.8-3.4 0.8zm0-2.6q0.8 0 1.5-0.4 0.7-0.3 1.2-1 0.4-0.6 0.4-1.6 0-1-0.4-1.7-0.5-0.6-1.2-1-0.7-0.3-1.5-0.3-0.8 0-1.5 0.3-0.7 0.4-1.2 1-0.4 0.7-0.4 1.7 0 1 0.4 1.6 0.5 0.7 1.2 1 0.7 0.4 1.5 0.4z"/>
		<path id="5" class="s1" d="m13 423.3q-1.9 0-3.3-0.7-1.4-0.7-2.1-1.7-0.7-1.1-0.7-2.3 0-0.2 0.1-0.3 0.2-0.1 0.4-0.1h2.1q0.3 0 0.4 0.1 0.2 0.1 0.3 0.3 0.2 0.7 0.7 1.2 0.4 0.4 0.9 0.6 0.6 0.2 1.2 0.2 0.9 0 1.5-0.3 0.7-0.4 1.1-1 0.5-0.7 0.5-1.7 0-0.8-0.4-1.4-0.4-0.7-1.1-1-0.7-0.4-1.6-0.4-0.6 0-1 0.2-0.4 0.2-0.7 0.4-0.3 0.2-0.5 0.3-0.2 0.2-0.5 0.2h-2.1q-0.2 0-0.4-0.1-0.1-0.2-0.1-0.4l0.8-7.9q0-0.3 0.2-0.4 0.2-0.2 0.4-0.2h8.7q0.2 0 0.3 0.2 0.2 0.1 0.2 0.4v1.5q0 0.2-0.2 0.4-0.1 0.1-0.3 0.1h-6.7l-0.4 3.8q0.5-0.3 1.1-0.5 0.7-0.3 2-0.3 1.1 0 2 0.4 1.1 0.3 1.8 1 0.8 0.7 1.3 1.6 0.4 1 0.4 2.2 0 1.7-0.8 2.9-0.7 1.3-2.1 2-1.5 0.7-3.4 0.7z"/>
		<path id="4" fill-rule="evenodd" class="s0" d="m17.1 323h-2q-0.2 0-0.4-0.2-0.2-0.1-0.2-0.4v-2.9h-7.3q-0.2 0-0.4-0.2-0.1-0.1-0.1-0.3c0-0.1 0-1.8 0-1.9q0.1-0.2 0.2-0.4l6.8-9.4q0.3-0.4 0.9-0.4h2.5q0.2 0 0.4 0.2 0.1 0.1 0.1 0.4v9.3h2.1q0.3 0 0.4 0.2 0.2 0.1 0.2 0.3v1.7q0 0.2-0.2 0.3-0.2 0.2-0.4 0.2h-2.1v2.9q0 0.3-0.1 0.4-0.2 0.2-0.4 0.2zm-2.5-12.8l-4.7 6.7h4.7z"/>
		<path id="3" class="s1" d="m13.2 223.2q-1.7 0-2.8-0.4-1.2-0.4-2-1-0.7-0.6-1.1-1.4-0.4-0.7-0.4-1.4 0-0.3 0.1-0.4 0.2-0.1 0.4-0.1h2q0.3 0 0.4 0.1 0.2 0.1 0.3 0.4 0.2 0.6 0.7 0.9 0.4 0.4 1.1 0.6 0.6 0.1 1.3 0.1 1.4 0 2.2-0.6 0.8-0.7 0.8-1.9 0-1.2-0.8-1.8-0.7-0.5-2.1-0.5h-2.4q-0.2 0-0.4-0.2-0.1-0.1-0.1-0.4v-0.9q0-0.3 0.1-0.4 0.1-0.2 0.2-0.3l4.1-4.1h-6.6q-0.2 0-0.4-0.1-0.1-0.2-0.1-0.4v-1.5q0-0.3 0.1-0.4 0.2-0.2 0.4-0.2h9.9q0.3 0 0.4 0.2 0.2 0.1 0.2 0.4v1.4q0 0.2-0.1 0.3-0.1 0.2-0.2 0.3l-4 4.1h0.3q1.4 0.1 2.5 0.7 1.1 0.5 1.7 1.5 0.6 0.9 0.6 2.4 0 1.6-0.9 2.7-0.8 1.1-2.2 1.7-1.4 0.6-3.2 0.6z"/>
		<path id="2" class="s0" d="m18.6 123h-11q-0.2 0-0.4-0.2-0.2-0.1-0.2-0.4v-1.1q0-0.2 0.1-0.5 0.1-0.3 0.5-0.6l3.6-3.6q1.6-1.2 2.5-2 0.9-0.9 1.3-1.6 0.5-0.7 0.5-1.4 0-1-0.6-1.7-0.6-0.6-1.8-0.6-0.8 0-1.3 0.3-0.6 0.4-0.9 0.9-0.3 0.6-0.4 1.2-0.1 0.3-0.3 0.4-0.2 0.2-0.4 0.2h-2q-0.2 0-0.4-0.2-0.1-0.1-0.1-0.3 0-1 0.4-1.9 0.4-1 1.1-1.7 0.8-0.7 1.9-1.1 1-0.5 2.4-0.5 1.9 0 3.2 0.7 1.2 0.6 1.8 1.7 0.7 1.1 0.7 2.5 0 1.1-0.4 2-0.4 0.9-1.2 1.7-0.8 0.9-1.9 1.8l-3.3 3.3h6.6q0.2 0 0.4 0.1 0.1 0.2 0.1 0.4v1.6q0 0.3-0.1 0.4-0.2 0.2-0.4 0.2z"/>
		<path id="1" class="s1" d="m14.5 23h-2.1q-0.3 0-0.4-0.2-0.2-0.1-0.2-0.4v-11.9l-3.5 2.7q-0.2 0.2-0.4 0.1-0.2 0-0.4-0.2l-0.9-1.3q-0.2-0.2-0.1-0.4 0-0.2 0.2-0.4l5.2-3.9q0.1-0.2 0.2-0.2 0.2 0 0.3 0h2.1q0.2 0 0.4 0.2 0.1 0.1 0.1 0.4v14.9q0 0.3-0.1 0.4-0.2 0.2-0.4 0.2z"/>
	</g>
	<g id="words">
		<path id="h" class="s0" d="m81.4 794h-2.7q-0.3 0-0.5-0.2-0.2-0.2-0.2-0.5v-19.9q0-0.3 0.2-0.5 0.2-0.2 0.5-0.2h2.7q0.3 0 0.5 0.2 0.2 0.2 0.2 0.5v6.9q0.8-1 2-1.6 1.2-0.6 2.9-0.6 1.8 0 3.2 0.8 1.3 0.8 2.1 2.3 0.7 1.5 0.7 3.7v8.4q0 0.3-0.2 0.5-0.2 0.2-0.5 0.2h-2.7q-0.3 0-0.5-0.2-0.2-0.2-0.2-0.5v-8.3q0-1.7-0.9-2.7-0.8-1-2.4-1-1.6 0-2.6 1-0.9 1-0.9 2.7v8.3q0 0.3-0.2 0.5-0.2 0.2-0.5 0.2z"/>
		<path id="g" fill-rule="evenodd" class="s1" d="m187 799.6q-2.2 0-3.6-0.6-1.4-0.5-2.2-1.4-0.8-0.8-1.2-1.5-0.3-0.9-0.3-1.3-0.1-0.3 0.2-0.5 0.2-0.3 0.5-0.3h2.6q0.3 0 0.5 0.2 0.2 0.1 0.3 0.5 0.2 0.4 0.5 0.8 0.3 0.5 0.9 0.8 0.6 0.3 1.7 0.3 1.1 0 1.9-0.3 0.8-0.4 1.2-1.1 0.4-0.8 0.4-2.2v-2q-0.7 0.8-1.9 1.4-1.1 0.5-2.7 0.5-1.6 0-2.8-0.5-1.2-0.5-2-1.5-0.7-0.9-1.2-2.2-0.4-1.3-0.4-2.9 0-0.8 0-1.6 0-1.5 0.4-2.8 0.5-1.3 1.2-2.2 0.8-1 2-1.6 1.2-0.5 2.8-0.5 1.7 0 2.8 0.7 1.2 0.6 2 1.6v-1.3q0-0.3 0.2-0.5 0.2-0.2 0.5-0.2h2.4q0.3 0 0.5 0.2 0.2 0.2 0.2 0.5l0.1 14.5q0 2.2-0.8 3.7-0.8 1.6-2.5 2.5-1.6 0.8-4.2 0.8zm-0.1-9.9q1.2 0 2-0.5 0.7-0.6 1.1-1.4 0.3-0.9 0.4-1.8 0-0.4 0-1 0-0.6 0-0.9-0.1-1-0.4-1.8-0.4-0.9-1.1-1.4-0.8-0.6-2-0.6-1.3 0-2 0.6-0.8 0.5-1.1 1.4-0.3 0.9-0.3 2-0.1 0.7 0 1.5 0 1 0.3 1.9 0.3 0.9 1.1 1.5 0.7 0.5 2 0.5z"/>
		<path id="f" class="s0" d="m287.8 794h-2.4q-0.3 0-0.5-0.2-0.2-0.2-0.2-0.5v-11.7h-2.5q-0.3 0-0.5-0.2-0.2-0.2-0.2-0.6v-1.7q0-0.3 0.2-0.5 0.2-0.2 0.5-0.2h2.5v-1.2q0-1.8 0.6-3 0.7-1.2 2-1.8 1.3-0.6 3.2-0.6h2.1q0.3 0 0.5 0.2 0.2 0.2 0.2 0.5v1.7q0 0.4-0.2 0.6-0.2 0.2-0.5 0.2h-1.9q-1.2 0-1.7 0.6-0.4 0.6-0.4 1.7v1.1h3.7q0.3 0 0.5 0.2 0.2 0.2 0.2 0.5v1.7q0 0.4-0.2 0.6-0.2 0.2-0.5 0.2h-3.7v11.7q0 0.3-0.2 0.5-0.3 0.2-0.6 0.2z"/>
		<path id="e" fill-rule="evenodd" class="s1" d="m385.7 794.3q-3.3 0-5.3-1.9-1.9-1.9-2.1-5.5 0-0.3 0-0.7 0-0.5 0-0.8 0.1-2.3 1-3.9 1-1.6 2.6-2.5 1.6-0.9 3.8-0.9 2.4 0 4.1 1 1.6 1 2.5 2.8 0.8 1.8 0.8 4.1v0.7q0 0.3-0.2 0.5-0.2 0.2-0.5 0.2h-10q0 0 0 0.1 0 0.1 0 0.1 0 1.1 0.4 2 0.4 0.8 1.1 1.4 0.7 0.5 1.8 0.5 0.8 0 1.4-0.2 0.5-0.3 0.9-0.6 0.4-0.4 0.5-0.6 0.3-0.3 0.4-0.4 0.2-0.1 0.6-0.1h2.5q0.3 0 0.5 0.2 0.2 0.2 0.2 0.5 0 0.4-0.5 1.1-0.5 0.7-1.3 1.4-0.9 0.6-2.2 1.1-1.3 0.4-3 0.4zm-3.3-9.5v0.1h6.6v-0.1q0-1.2-0.4-2.1-0.3-0.9-1.1-1.4-0.7-0.5-1.8-0.5-1.1 0-1.8 0.5-0.8 0.5-1.1 1.4-0.4 0.9-0.4 2.1z"/>
		<path id="d" fill-rule="evenodd" class="s0" d="m484.8 794.3q-1.6 0-2.8-0.5-1.2-0.5-1.9-1.5-0.8-1-1.2-2.3-0.5-1.3-0.5-2.8 0-0.6 0-1 0-0.4 0-1 0-1.5 0.4-2.8 0.4-1.3 1.2-2.2 0.8-1 2-1.6 1.2-0.5 2.8-0.5 1.6 0 2.7 0.6 1.1 0.5 1.9 1.4v-6.7q0-0.3 0.2-0.5 0.2-0.2 0.5-0.2h2.6q0.3 0 0.5 0.2 0.2 0.2 0.2 0.5v19.9q0 0.3-0.2 0.5-0.2 0.2-0.5 0.2h-2.4q-0.3 0-0.6-0.2-0.1-0.2-0.1-0.5v-1.1q-0.8 0.9-2 1.5-1.1 0.6-2.8 0.6zm1.1-3.2q1.2 0 2-0.6 0.7-0.5 1.1-1.4 0.4-0.9 0.4-1.8 0-0.6 0-1.2 0-0.6 0-1.2 0-0.9-0.4-1.7-0.4-0.8-1.2-1.3-0.7-0.6-1.9-0.6-1.3 0-2 0.6-0.8 0.5-1.1 1.4-0.3 0.9-0.4 2 0 0.9 0 1.8 0.1 1.1 0.4 2 0.3 0.9 1.1 1.5 0.7 0.5 2 0.5z"/>
		<path id="c" class="s1" d="m585.7 794.3q-2.1 0-3.8-0.8-1.6-0.8-2.5-2.3-0.9-1.6-1-3.8 0-0.4 0-1.2 0-0.7 0-1.2 0.1-2.2 1-3.7 0.9-1.6 2.5-2.4 1.7-0.8 3.8-0.8 1.9 0 3.3 0.5 1.4 0.6 2.2 1.4 0.9 0.8 1.3 1.7 0.5 0.9 0.5 1.6 0 0.3-0.2 0.5-0.2 0.2-0.5 0.2h-2.7q-0.3 0-0.5-0.1-0.1-0.2-0.2-0.5-0.5-1.2-1.3-1.7-0.7-0.5-1.8-0.5-1.5 0-2.4 1-0.9 0.9-0.9 3-0.1 1.1 0 2.1 0 2 0.9 3 0.9 0.9 2.4 0.9 1.2 0 1.9-0.5 0.7-0.5 1.2-1.7 0.1-0.3 0.2-0.5 0.2-0.1 0.5-0.1h2.7q0.3 0 0.5 0.2 0.2 0.2 0.2 0.5 0 0.6-0.3 1.2-0.2 0.7-0.8 1.4-0.6 0.7-1.4 1.3-0.8 0.6-2 0.9-1.2 0.4-2.8 0.4z"/>
		<path id="b" fill-rule="evenodd" class="s0" d="m687.6 794.3q-1.7 0-2.9-0.6-1.1-0.6-1.9-1.5v1.1q0 0.3-0.2 0.5-0.2 0.2-0.5 0.2h-2.4q-0.3 0-0.5-0.2-0.2-0.2-0.2-0.5v-19.9q0-0.3 0.2-0.5 0.2-0.2 0.5-0.2h2.6q0.3 0 0.5 0.2 0.2 0.2 0.2 0.5v6.7q0.8-0.9 1.9-1.4 1.1-0.6 2.7-0.6 1.6 0 2.8 0.5 1.2 0.6 1.9 1.6 0.8 0.9 1.3 2.2 0.4 1.3 0.4 2.8 0 0.6 0 1 0 0.4 0 1-0.1 1.5-0.5 2.8-0.4 1.3-1.2 2.3-0.7 1-1.9 1.5-1.2 0.5-2.8 0.5zm-1.1-3.2q1.3 0 2-0.6 0.7-0.5 1.1-1.4 0.3-0.9 0.4-2 0-0.9 0-1.8-0.1-1.1-0.4-2-0.4-0.9-1.1-1.4-0.7-0.6-2-0.6-1.2 0-1.9 0.6-0.8 0.5-1.2 1.3-0.4 0.8-0.4 1.7 0 0.6 0 1.2 0 0.6 0 1.2 0.1 0.9 0.4 1.8 0.4 0.9 1.1 1.4 0.8 0.6 2 0.6z"/>
		<path id="a" fill-rule="evenodd" class="s1" d="m784.5 793.3q-1.5 0-2.8-0.6-1.3-0.6-2-1.6-0.7-1.1-0.7-2.4 0-2.1 1.7-3.3 1.7-1.3 4.4-1.7l4.1-0.6v-0.6q0-1.3-0.6-2-0.6-0.7-2.1-0.7-1.1 0-1.8 0.5-0.7 0.4-1 1.1-0.2 0.4-0.7 0.4h-2.4q-0.3 0-0.5-0.2-0.1-0.1-0.1-0.4 0-0.5 0.4-1.2 0.4-0.7 1.1-1.3 0.8-0.7 2-1.2 1.2-0.4 3-0.4 1.9 0 3.2 0.5 1.3 0.4 2.1 1.2 0.7 0.8 1.1 1.8 0.4 1.1 0.4 2.3v9.4q0 0.3-0.2 0.5-0.3 0.2-0.6 0.2h-2.4q-0.3 0-0.5-0.2-0.2-0.2-0.2-0.5v-1.2q-0.4 0.6-1.1 1.1-0.6 0.5-1.6 0.8-0.9 0.3-2.2 0.3zm1-2.8q1.1 0 1.9-0.5 0.9-0.5 1.4-1.4 0.5-0.9 0.5-2.4v-0.6l-3 0.5q-1.8 0.2-2.7 0.8-0.8 0.6-0.8 1.5 0 0.7 0.4 1.1 0.4 0.5 1 0.7 0.6 0.3 1.3 0.3z"/>
	</g>
</svg>