<svg version="1.2" xmlns="http://www.w3.org/2000/svg" viewBox="0 0 300 300" width="300" height="300">
	<title>icon</title>
	<style>
		.s0 { fill: #8a5434 } 
		.s1 { fill: #f3dfb9 } 
	</style>
	<path id="Shape 3 copy 2" class="s0" d="m150 0v100h-100v-100zm-50 52v100h-100v-100zm-50-52c27.6 0 50 22.4 50 50 0 27.6-22.4 50-50 50-27.6 0-50-22.4-50-50 0-27.6 22.4-50 50-50zm150 100v100h-100v-100zm-50 200v-100h100v100zm50-52v-100h100v100zm50 52c-27.6 0-50-22.4-50-50 0-27.6 22.4-50 50-50 27.6 0 50 22.4 50 50 0 27.6-22.4 50-50 50zm-250-150h100v100h-100zm52 50h100v100h-100zm-52 50c0-27.6 22.4-50 50-50 27.6 0 50 22.4 50 50 0 27.6-22.4 50-50 50-27.6 0-50-22.4-50-50zm300-100h-100v-100h100zm-52-50h-100v-100h100zm52-50c0 27.6-22.4 50-50 50-27.6 0-50-22.4-50-50 0-27.6 22.4-50 50-50 27.6 0 50 22.4 50 50z"/>
	<path id="Shape 2" class="s1" d="m100 0h100v100h-100zm-100 100h100v100h-100zm200 0h100v100h-100zm-100 100h100v100h-100z"/>
</svg>